<svg 
 xmlns="http://www.w3.org/2000/svg"
 xmlns:xlink="http://www.w3.org/1999/xlink"
 width="14px" height="8px">
<path fill-rule="evenodd"  fill="rgb(255, 255, 255)"
 d="M7.000,8.000 C3.134,8.000 0.000,4.000 0.000,4.000 C0.000,4.000 3.134,0.001 7.000,0.001 C10.866,0.001 14.000,4.000 14.000,4.000 C14.000,4.000 10.866,8.000 7.000,8.000 ZM7.000,0.667 C3.907,0.667 1.400,4.000 1.400,4.000 C1.400,4.000 3.907,7.334 7.000,7.334 C10.093,7.334 12.600,4.000 12.600,4.000 C12.600,4.000 10.093,0.667 7.000,0.667 ZM7.000,7.201 C5.282,7.201 3.889,5.768 3.889,4.000 C3.889,2.233 5.282,0.801 7.000,0.801 C8.718,0.801 10.111,2.233 10.111,4.000 C10.111,5.768 8.718,7.201 7.000,7.201 Z"/>
</svg>