<svg 
 xmlns="http://www.w3.org/2000/svg"
 xmlns:xlink="http://www.w3.org/1999/xlink"
 width="11px" height="14px">
<path fill-rule="evenodd"  fill="rgb(255, 255, 255)"
 d="M9.000,9.001 L6.000,13.001 C5.842,13.189 5.559,12.987 5.251,12.649 C4.891,12.861 4.509,13.001 4.105,13.001 C2.216,13.001 0.000,10.370 0.000,8.126 L0.000,3.251 C0.000,2.802 0.307,2.438 0.684,2.438 C1.062,2.438 1.368,2.802 1.368,3.251 L1.368,6.437 C1.574,6.426 1.815,6.440 2.052,6.452 L2.052,1.626 C2.052,1.177 2.359,0.814 2.737,0.814 C3.114,0.814 3.421,1.177 3.421,1.626 L3.421,6.501 C3.645,6.501 3.875,6.492 4.105,6.480 L4.105,0.814 C4.105,0.365 4.411,0.001 4.789,0.001 C5.167,0.001 5.473,0.365 5.473,0.814 L5.473,6.425 C5.715,6.426 5.943,6.443 6.157,6.476 L6.157,2.438 C6.157,1.990 6.463,1.626 6.841,1.626 C7.219,1.626 7.525,1.990 7.525,2.438 L7.525,7.340 C8.209,6.701 9.661,5.598 10.000,6.001 C10.401,6.477 9.401,8.525 9.000,9.001 Z"/>
</svg>