<svg 
 xmlns="http://www.w3.org/2000/svg"
 xmlns:xlink="http://www.w3.org/1999/xlink"
 width="12px" height="15px">
<path fill-rule="evenodd"  fill="rgb(28, 36, 42)"
 d="M12.000,14.000 L12.000,15.000 L-0.000,15.000 L-0.000,14.000 L1.000,14.000 L4.820,7.112 L1.000,1.000 L-0.000,1.000 L-0.000,0.001 L12.000,0.001 L12.000,1.000 L11.000,1.000 L7.190,7.097 L11.000,14.000 L12.000,14.000 ZM8.000,3.000 L4.000,3.000 L6.000,6.000 L8.000,3.000 ZM6.000,8.000 L3.000,13.000 L6.000,12.500 L6.000,12.000 L7.000,12.000 L7.000,12.333 L9.000,12.000 L6.000,8.000 ZM5.000,10.000 L6.000,10.000 L6.000,11.000 L5.000,11.000 L5.000,10.000 Z"/>
</svg>